<svg width="48" height="48" viewBox="0 0 48 48" fill="none" xmlns="http://www.w3.org/2000/svg">
<g clip-path="url(#clip0_346_3139)">
<rect width="48" height="48" fill="white"/>
<ellipse cx="24" cy="24" rx="24" ry="24" transform="rotate(180 24 24)" fill="#1696D2"/>
<path d="M27.1265 19.411V39H21.8825V19.411H27.1265ZM27.7535 13.844C27.7535 14.2873 27.6648 14.699 27.4875 15.079C27.3101 15.459 27.0695 15.7947 26.7655 16.086C26.4741 16.3773 26.1258 16.6053 25.7205 16.77C25.3278 16.9347 24.9035 17.017 24.4475 17.017C24.0168 17.017 23.6051 16.9347 23.2125 16.77C22.8325 16.6053 22.4968 16.3773 22.2055 16.086C21.9141 15.7947 21.6798 15.459 21.5025 15.079C21.3378 14.699 21.2555 14.2873 21.2555 13.844C21.2555 13.4007 21.3378 12.989 21.5025 12.609C21.6798 12.2163 21.9141 11.8743 22.2055 11.583C22.4968 11.2917 22.8325 11.0637 23.2125 10.899C23.6051 10.7343 24.0168 10.652 24.4475 10.652C24.9035 10.652 25.3278 10.7343 25.7205 10.899C26.1258 11.0637 26.4741 11.2917 26.7655 11.583C27.0695 11.8743 27.3101 12.2163 27.4875 12.609C27.6648 12.989 27.7535 13.4007 27.7535 13.844Z" fill="white"/>
</g>
<defs>
<clipPath id="clip0_346_3139">
<rect width="48" height="48" fill="white"/>
</clipPath>
</defs>
</svg>
