<?xml version="1.0" encoding="UTF-8"?><svg id="Layer_1" xmlns="http://www.w3.org/2000/svg" viewBox="0 0 322.48 322.48"><defs><style>.cls-1{fill:#414042;}</style></defs><path class="cls-1" d="m292.41,35.75c-.65.34-1.55.92-2.64,1.88l-23.1,20.26-6.83-5.75c-25.91-21.82-58.72-33.83-92.39-33.83C88.6,18.31,24.43,82.49,24.41,161.38c.03,78.91,64.2,143.11,143.04,143.11,48.45,0,93.25-24.21,119.82-64.76,3.02-4.66,1.7-10.96-2.96-14.02-2.28-1.5-4.97-2.01-7.61-1.46-2.65.55-4.93,2.11-6.42,4.39-22.84,34.78-61.28,55.55-102.82,55.55-32.79-.05-63.6-12.84-86.76-36.02-23.16-23.17-35.95-53.98-36.02-86.78.07-32.83,12.86-63.64,36.02-86.81,23.15-23.16,53.96-35.96,86.73-36.03,26.99,0,52.57,8.59,74,24.84l10.21,7.74-12.27,10.58-13.02,11.36c-1.11.98-1.81,1.81-2.23,2.41.66.32,1.67.69,3.11.99l5.79,1.19c13.35,2.77,35.16,7.31,48.48,10.08l5.81,1.2c3.19.67,5.91.18,7.67-1.36,1.76-1.54,2.6-4.18,2.36-7.42l-.41-5.9c-.56-7.91-1.33-18.76-2.07-29.12l-1.88-26.13c-.1-1.5-.34-2.57-.56-3.28Z"/></svg>