<?xml version="1.0" encoding="UTF-8"?><svg id="Layer_1" xmlns="http://www.w3.org/2000/svg" viewBox="0 0 322.48 322.48"><defs><style>.cls-1{fill:#000000;}</style></defs><path class="cls-1" d="m286.87,99.98c-.52-7.38-1.24-17.53-1.93-27.19l-1.73-23.98c-.27-3.94-1.47-6.79-3.13-7.47-1.66-.68-4.51.49-7.44,3.07l-18.42,16.14-3.3-2.78c-24.81-20.89-56.24-32.4-88.48-32.4-75.52,0-136.98,61.47-137.01,137.04.03,75.58,61.49,137.07,137.01,137.07,46.41,0,89.31-23.19,114.76-62.02,4.18-6.45,2.36-15.13-4.07-19.33-3.13-2.06-6.85-2.77-10.5-2-3.65.76-6.79,2.91-8.84,6.04-20.29,30.9-54.44,49.35-91.34,49.35-60.01-.09-108.93-49.03-109.06-109.09.06-29.15,11.43-56.52,32-77.1,20.57-20.58,47.93-31.94,77.05-32.01,23.96,0,46.68,7.63,65.71,22.06l4.93,3.73-7.06,6.09-12.08,10.54c-2.94,2.58-4.48,5.27-4.02,7.01.46,1.73,3.11,3.3,6.92,4.1l5.99,1.23c12.39,2.57,32.13,6.68,44.26,9.2l5.39,1.11c4.39.91,8.31.1,11.05-2.3,2.74-2.4,4.07-6.18,3.74-10.66l-.38-5.45Z"/></svg>